<mxfile host="app.diagrams.net" modified="2022-05-09T14:54:34.383Z" agent="5.0 (Windows NT 10.0; Win64; x64) AppleWebKit/537.36 (KHTML, like Gecko) Chrome/101.0.4951.54 Safari/537.36" etag="_kWnIOlv22TnQUD8H6EY" version="18.0.2" type="github">
  <diagram id="wwY-4GpthgJ-uq0iMGtW" name="Page-1">
    <mxGraphModel dx="2733" dy="1544" grid="1" gridSize="10" guides="1" tooltips="1" connect="1" arrows="1" fold="1" page="1" pageScale="1" pageWidth="1169" pageHeight="827" math="0" shadow="0">
      <root>
        <mxCell id="0" />
        <mxCell id="1" parent="0" />
        <mxCell id="jIKgLwLdZSsmDSTW-W0w-35" style="edgeStyle=orthogonalEdgeStyle;rounded=0;orthogonalLoop=1;jettySize=auto;html=1;exitX=0.5;exitY=1;exitDx=0;exitDy=0;entryX=0.5;entryY=0;entryDx=0;entryDy=0;" edge="1" parent="1" source="jIKgLwLdZSsmDSTW-W0w-1" target="jIKgLwLdZSsmDSTW-W0w-2">
          <mxGeometry relative="1" as="geometry" />
        </mxCell>
        <mxCell id="jIKgLwLdZSsmDSTW-W0w-1" value="Загальні збори" style="rounded=0;whiteSpace=wrap;html=1;" vertex="1" parent="1">
          <mxGeometry x="-180" y="10" width="120" height="60" as="geometry" />
        </mxCell>
        <mxCell id="jIKgLwLdZSsmDSTW-W0w-34" style="edgeStyle=orthogonalEdgeStyle;rounded=0;orthogonalLoop=1;jettySize=auto;html=1;exitX=0.5;exitY=1;exitDx=0;exitDy=0;entryX=0.5;entryY=0;entryDx=0;entryDy=0;" edge="1" parent="1" source="jIKgLwLdZSsmDSTW-W0w-2" target="jIKgLwLdZSsmDSTW-W0w-3">
          <mxGeometry relative="1" as="geometry" />
        </mxCell>
        <mxCell id="jIKgLwLdZSsmDSTW-W0w-2" value="Наглядова рада" style="rounded=0;whiteSpace=wrap;html=1;" vertex="1" parent="1">
          <mxGeometry x="-180" y="90" width="120" height="60" as="geometry" />
        </mxCell>
        <mxCell id="jIKgLwLdZSsmDSTW-W0w-33" style="edgeStyle=orthogonalEdgeStyle;rounded=0;orthogonalLoop=1;jettySize=auto;html=1;exitX=0.5;exitY=1;exitDx=0;exitDy=0;entryX=0.5;entryY=0;entryDx=0;entryDy=0;" edge="1" parent="1" source="jIKgLwLdZSsmDSTW-W0w-3" target="jIKgLwLdZSsmDSTW-W0w-5">
          <mxGeometry relative="1" as="geometry" />
        </mxCell>
        <mxCell id="jIKgLwLdZSsmDSTW-W0w-100" style="edgeStyle=orthogonalEdgeStyle;rounded=0;orthogonalLoop=1;jettySize=auto;html=1;exitX=1;exitY=0.5;exitDx=0;exitDy=0;entryX=0;entryY=0.5;entryDx=0;entryDy=0;" edge="1" parent="1" source="jIKgLwLdZSsmDSTW-W0w-3" target="jIKgLwLdZSsmDSTW-W0w-94">
          <mxGeometry relative="1" as="geometry">
            <Array as="points">
              <mxPoint x="120" y="200" />
              <mxPoint x="120" y="600" />
            </Array>
          </mxGeometry>
        </mxCell>
        <mxCell id="jIKgLwLdZSsmDSTW-W0w-3" value="Виконавчий директор" style="rounded=0;whiteSpace=wrap;html=1;" vertex="1" parent="1">
          <mxGeometry x="-180" y="170" width="120" height="60" as="geometry" />
        </mxCell>
        <mxCell id="jIKgLwLdZSsmDSTW-W0w-31" style="edgeStyle=orthogonalEdgeStyle;rounded=0;orthogonalLoop=1;jettySize=auto;html=1;exitX=0;exitY=0.5;exitDx=0;exitDy=0;entryX=0.5;entryY=0;entryDx=0;entryDy=0;" edge="1" parent="1" source="jIKgLwLdZSsmDSTW-W0w-5" target="jIKgLwLdZSsmDSTW-W0w-7">
          <mxGeometry relative="1" as="geometry" />
        </mxCell>
        <mxCell id="jIKgLwLdZSsmDSTW-W0w-32" style="edgeStyle=orthogonalEdgeStyle;rounded=0;orthogonalLoop=1;jettySize=auto;html=1;exitX=1;exitY=0.5;exitDx=0;exitDy=0;entryX=0.5;entryY=0;entryDx=0;entryDy=0;" edge="1" parent="1" source="jIKgLwLdZSsmDSTW-W0w-5" target="jIKgLwLdZSsmDSTW-W0w-6">
          <mxGeometry relative="1" as="geometry" />
        </mxCell>
        <mxCell id="jIKgLwLdZSsmDSTW-W0w-81" style="edgeStyle=orthogonalEdgeStyle;rounded=0;orthogonalLoop=1;jettySize=auto;html=1;exitX=0.5;exitY=1;exitDx=0;exitDy=0;entryX=0.5;entryY=0;entryDx=0;entryDy=0;" edge="1" parent="1" source="jIKgLwLdZSsmDSTW-W0w-5" target="jIKgLwLdZSsmDSTW-W0w-9">
          <mxGeometry relative="1" as="geometry" />
        </mxCell>
        <mxCell id="jIKgLwLdZSsmDSTW-W0w-5" value="Директор виробничого департаменту" style="rounded=0;whiteSpace=wrap;html=1;" vertex="1" parent="1">
          <mxGeometry x="-180" y="250" width="120" height="60" as="geometry" />
        </mxCell>
        <mxCell id="jIKgLwLdZSsmDSTW-W0w-85" style="edgeStyle=orthogonalEdgeStyle;rounded=0;orthogonalLoop=1;jettySize=auto;html=1;exitX=0;exitY=0.5;exitDx=0;exitDy=0;entryX=0;entryY=0.5;entryDx=0;entryDy=0;" edge="1" parent="1" source="jIKgLwLdZSsmDSTW-W0w-6" target="jIKgLwLdZSsmDSTW-W0w-38">
          <mxGeometry relative="1" as="geometry" />
        </mxCell>
        <mxCell id="jIKgLwLdZSsmDSTW-W0w-6" value="Директор з виробництва" style="rounded=0;whiteSpace=wrap;html=1;" vertex="1" parent="1">
          <mxGeometry x="-20" y="330" width="120" height="60" as="geometry" />
        </mxCell>
        <mxCell id="jIKgLwLdZSsmDSTW-W0w-76" style="edgeStyle=orthogonalEdgeStyle;rounded=0;orthogonalLoop=1;jettySize=auto;html=1;exitX=0;exitY=0.5;exitDx=0;exitDy=0;entryX=0;entryY=0.5;entryDx=0;entryDy=0;" edge="1" parent="1" source="jIKgLwLdZSsmDSTW-W0w-7" target="jIKgLwLdZSsmDSTW-W0w-66">
          <mxGeometry relative="1" as="geometry" />
        </mxCell>
        <mxCell id="jIKgLwLdZSsmDSTW-W0w-7" value="Заступник директора виробничого департаменту" style="rounded=0;whiteSpace=wrap;html=1;" vertex="1" parent="1">
          <mxGeometry x="-340" y="330" width="120" height="60" as="geometry" />
        </mxCell>
        <mxCell id="jIKgLwLdZSsmDSTW-W0w-30" style="edgeStyle=orthogonalEdgeStyle;rounded=0;orthogonalLoop=1;jettySize=auto;html=1;exitX=0.5;exitY=0;exitDx=0;exitDy=0;entryX=0.5;entryY=0;entryDx=0;entryDy=0;" edge="1" parent="1" target="jIKgLwLdZSsmDSTW-W0w-8">
          <mxGeometry relative="1" as="geometry">
            <mxPoint x="-439.58823529411757" y="200" as="sourcePoint" />
          </mxGeometry>
        </mxCell>
        <mxCell id="jIKgLwLdZSsmDSTW-W0w-72" style="edgeStyle=orthogonalEdgeStyle;rounded=0;orthogonalLoop=1;jettySize=auto;html=1;exitX=0;exitY=0.5;exitDx=0;exitDy=0;entryX=0;entryY=0.5;entryDx=0;entryDy=0;" edge="1" parent="1" source="jIKgLwLdZSsmDSTW-W0w-8" target="jIKgLwLdZSsmDSTW-W0w-64">
          <mxGeometry relative="1" as="geometry" />
        </mxCell>
        <mxCell id="jIKgLwLdZSsmDSTW-W0w-8" value="Директор з маркетингу" style="rounded=0;whiteSpace=wrap;html=1;" vertex="1" parent="1">
          <mxGeometry x="-500" y="250" width="120" height="60" as="geometry" />
        </mxCell>
        <mxCell id="jIKgLwLdZSsmDSTW-W0w-82" style="edgeStyle=orthogonalEdgeStyle;rounded=0;orthogonalLoop=1;jettySize=auto;html=1;exitX=0;exitY=0.5;exitDx=0;exitDy=0;entryX=0;entryY=0.5;entryDx=0;entryDy=0;" edge="1" parent="1" source="jIKgLwLdZSsmDSTW-W0w-9" target="jIKgLwLdZSsmDSTW-W0w-16">
          <mxGeometry relative="1" as="geometry" />
        </mxCell>
        <mxCell id="jIKgLwLdZSsmDSTW-W0w-9" value="Технічний директор" style="rounded=0;whiteSpace=wrap;html=1;" vertex="1" parent="1">
          <mxGeometry x="-180" y="330" width="120" height="60" as="geometry" />
        </mxCell>
        <mxCell id="jIKgLwLdZSsmDSTW-W0w-47" style="edgeStyle=orthogonalEdgeStyle;rounded=0;orthogonalLoop=1;jettySize=auto;html=1;exitX=0;exitY=0.5;exitDx=0;exitDy=0;entryX=0;entryY=0.5;entryDx=0;entryDy=0;" edge="1" parent="1" source="jIKgLwLdZSsmDSTW-W0w-10" target="jIKgLwLdZSsmDSTW-W0w-46">
          <mxGeometry relative="1" as="geometry" />
        </mxCell>
        <mxCell id="jIKgLwLdZSsmDSTW-W0w-10" value="Фінансовий директор" style="rounded=0;whiteSpace=wrap;html=1;" vertex="1" parent="1">
          <mxGeometry x="-820" y="250" width="120" height="60" as="geometry" />
        </mxCell>
        <mxCell id="jIKgLwLdZSsmDSTW-W0w-50" style="edgeStyle=orthogonalEdgeStyle;rounded=0;orthogonalLoop=1;jettySize=auto;html=1;exitX=0;exitY=0.5;exitDx=0;exitDy=0;entryX=0;entryY=0.5;entryDx=0;entryDy=0;" edge="1" parent="1" source="jIKgLwLdZSsmDSTW-W0w-12" target="jIKgLwLdZSsmDSTW-W0w-42">
          <mxGeometry relative="1" as="geometry" />
        </mxCell>
        <mxCell id="jIKgLwLdZSsmDSTW-W0w-12" value="Директор служби якості" style="rounded=0;whiteSpace=wrap;html=1;" vertex="1" parent="1">
          <mxGeometry x="-980" y="250" width="120" height="60" as="geometry" />
        </mxCell>
        <mxCell id="jIKgLwLdZSsmDSTW-W0w-68" style="edgeStyle=orthogonalEdgeStyle;rounded=0;orthogonalLoop=1;jettySize=auto;html=1;exitX=0;exitY=0.5;exitDx=0;exitDy=0;entryX=0;entryY=0.5;entryDx=0;entryDy=0;" edge="1" parent="1" source="jIKgLwLdZSsmDSTW-W0w-13" target="jIKgLwLdZSsmDSTW-W0w-60">
          <mxGeometry relative="1" as="geometry" />
        </mxCell>
        <mxCell id="jIKgLwLdZSsmDSTW-W0w-13" value="Директор служби продажу" style="rounded=0;whiteSpace=wrap;html=1;" vertex="1" parent="1">
          <mxGeometry x="-660" y="250" width="120" height="60" as="geometry" />
        </mxCell>
        <mxCell id="jIKgLwLdZSsmDSTW-W0w-84" style="edgeStyle=orthogonalEdgeStyle;rounded=0;orthogonalLoop=1;jettySize=auto;html=1;exitX=0;exitY=0.5;exitDx=0;exitDy=0;entryX=0;entryY=0.5;entryDx=0;entryDy=0;" edge="1" parent="1" target="jIKgLwLdZSsmDSTW-W0w-14">
          <mxGeometry relative="1" as="geometry">
            <mxPoint x="-200" y="439.6470588235295" as="sourcePoint" />
          </mxGeometry>
        </mxCell>
        <mxCell id="jIKgLwLdZSsmDSTW-W0w-14" value="Менеджер проектів" style="rounded=0;whiteSpace=wrap;html=1;" vertex="1" parent="1">
          <mxGeometry x="-180" y="410" width="120" height="60" as="geometry" />
        </mxCell>
        <mxCell id="jIKgLwLdZSsmDSTW-W0w-83" style="edgeStyle=orthogonalEdgeStyle;rounded=0;orthogonalLoop=1;jettySize=auto;html=1;exitX=0;exitY=0.5;exitDx=0;exitDy=0;entryX=0;entryY=0.5;entryDx=0;entryDy=0;" edge="1" parent="1" target="jIKgLwLdZSsmDSTW-W0w-15">
          <mxGeometry relative="1" as="geometry">
            <mxPoint x="-200" y="519.6470588235295" as="sourcePoint" />
          </mxGeometry>
        </mxCell>
        <mxCell id="jIKgLwLdZSsmDSTW-W0w-15" value="Відділ головного механіка" style="rounded=0;whiteSpace=wrap;html=1;" vertex="1" parent="1">
          <mxGeometry x="-180" y="490" width="120" height="60" as="geometry" />
        </mxCell>
        <mxCell id="jIKgLwLdZSsmDSTW-W0w-16" value="Відділ головного енергетика" style="rounded=0;whiteSpace=wrap;html=1;" vertex="1" parent="1">
          <mxGeometry x="-180" y="570" width="120" height="60" as="geometry" />
        </mxCell>
        <mxCell id="jIKgLwLdZSsmDSTW-W0w-49" style="edgeStyle=orthogonalEdgeStyle;rounded=0;orthogonalLoop=1;jettySize=auto;html=1;exitX=0;exitY=0.5;exitDx=0;exitDy=0;entryX=0;entryY=0.5;entryDx=0;entryDy=0;" edge="1" parent="1" target="jIKgLwLdZSsmDSTW-W0w-18">
          <mxGeometry relative="1" as="geometry">
            <mxPoint x="-840" y="359.6470588235295" as="sourcePoint" />
          </mxGeometry>
        </mxCell>
        <mxCell id="jIKgLwLdZSsmDSTW-W0w-18" value="Планово-економічний відділ" style="rounded=0;whiteSpace=wrap;html=1;" vertex="1" parent="1">
          <mxGeometry x="-820" y="330" width="120" height="60" as="geometry" />
        </mxCell>
        <mxCell id="jIKgLwLdZSsmDSTW-W0w-71" style="edgeStyle=orthogonalEdgeStyle;rounded=0;orthogonalLoop=1;jettySize=auto;html=1;exitX=0;exitY=0.5;exitDx=0;exitDy=0;entryX=0;entryY=0.5;entryDx=0;entryDy=0;" edge="1" parent="1" target="jIKgLwLdZSsmDSTW-W0w-19">
          <mxGeometry relative="1" as="geometry">
            <mxPoint x="-680" y="359.6470588235295" as="sourcePoint" />
          </mxGeometry>
        </mxCell>
        <mxCell id="jIKgLwLdZSsmDSTW-W0w-19" value="Відділ дистрибуції та поставок" style="rounded=0;whiteSpace=wrap;html=1;" vertex="1" parent="1">
          <mxGeometry x="-660" y="330" width="120" height="60" as="geometry" />
        </mxCell>
        <mxCell id="jIKgLwLdZSsmDSTW-W0w-75" style="edgeStyle=orthogonalEdgeStyle;rounded=0;orthogonalLoop=1;jettySize=auto;html=1;exitX=0;exitY=0.5;exitDx=0;exitDy=0;entryX=0;entryY=0.5;entryDx=0;entryDy=0;" edge="1" parent="1" target="jIKgLwLdZSsmDSTW-W0w-20">
          <mxGeometry relative="1" as="geometry">
            <mxPoint x="-520" y="359.6470588235295" as="sourcePoint" />
          </mxGeometry>
        </mxCell>
        <mxCell id="jIKgLwLdZSsmDSTW-W0w-20" value="Відділ стратегічного маркетингу" style="rounded=0;whiteSpace=wrap;html=1;" vertex="1" parent="1">
          <mxGeometry x="-500" y="330" width="120" height="60" as="geometry" />
        </mxCell>
        <mxCell id="jIKgLwLdZSsmDSTW-W0w-54" style="edgeStyle=orthogonalEdgeStyle;rounded=0;orthogonalLoop=1;jettySize=auto;html=1;exitX=0;exitY=0.5;exitDx=0;exitDy=0;entryX=0;entryY=0.5;entryDx=0;entryDy=0;" edge="1" parent="1" source="jIKgLwLdZSsmDSTW-W0w-21" target="jIKgLwLdZSsmDSTW-W0w-23">
          <mxGeometry relative="1" as="geometry" />
        </mxCell>
        <mxCell id="jIKgLwLdZSsmDSTW-W0w-21" value="Директор ІТ" style="rounded=0;whiteSpace=wrap;html=1;" vertex="1" parent="1">
          <mxGeometry x="-1140" y="250" width="120" height="60" as="geometry" />
        </mxCell>
        <mxCell id="jIKgLwLdZSsmDSTW-W0w-55" style="edgeStyle=orthogonalEdgeStyle;rounded=0;orthogonalLoop=1;jettySize=auto;html=1;exitX=0;exitY=0.5;exitDx=0;exitDy=0;entryX=0;entryY=0.5;entryDx=0;entryDy=0;" edge="1" parent="1" target="jIKgLwLdZSsmDSTW-W0w-22">
          <mxGeometry relative="1" as="geometry">
            <mxPoint x="-1160.0000000000002" y="359.6470588235295" as="sourcePoint" />
          </mxGeometry>
        </mxCell>
        <mxCell id="jIKgLwLdZSsmDSTW-W0w-22" value="Відділ ІТ-підтримки" style="rounded=0;whiteSpace=wrap;html=1;" vertex="1" parent="1">
          <mxGeometry x="-1140" y="330" width="120" height="60" as="geometry" />
        </mxCell>
        <mxCell id="jIKgLwLdZSsmDSTW-W0w-23" value="Відділ інформаційних технологій" style="rounded=0;whiteSpace=wrap;html=1;" vertex="1" parent="1">
          <mxGeometry x="-1140" y="410" width="120" height="60" as="geometry" />
        </mxCell>
        <mxCell id="jIKgLwLdZSsmDSTW-W0w-53" style="edgeStyle=orthogonalEdgeStyle;rounded=0;orthogonalLoop=1;jettySize=auto;html=1;exitX=0;exitY=0.5;exitDx=0;exitDy=0;entryX=0;entryY=0.5;entryDx=0;entryDy=0;" edge="1" parent="1" target="jIKgLwLdZSsmDSTW-W0w-24">
          <mxGeometry relative="1" as="geometry">
            <mxPoint x="-1000.0000000000002" y="359.6470588235295" as="sourcePoint" />
          </mxGeometry>
        </mxCell>
        <mxCell id="jIKgLwLdZSsmDSTW-W0w-24" value="Відділ контролю якості" style="rounded=0;whiteSpace=wrap;html=1;" vertex="1" parent="1">
          <mxGeometry x="-980" y="330" width="120" height="60" as="geometry" />
        </mxCell>
        <mxCell id="jIKgLwLdZSsmDSTW-W0w-25" value="" style="endArrow=classic;html=1;rounded=0;exitX=0;exitY=0.5;exitDx=0;exitDy=0;edgeStyle=orthogonalEdgeStyle;entryX=0.5;entryY=0;entryDx=0;entryDy=0;" edge="1" parent="1" source="jIKgLwLdZSsmDSTW-W0w-3" target="jIKgLwLdZSsmDSTW-W0w-21">
          <mxGeometry width="50" height="50" relative="1" as="geometry">
            <mxPoint x="-640" y="330" as="sourcePoint" />
            <mxPoint x="-1080" y="190" as="targetPoint" />
          </mxGeometry>
        </mxCell>
        <mxCell id="jIKgLwLdZSsmDSTW-W0w-26" value="" style="endArrow=classic;html=1;rounded=0;entryX=0.5;entryY=0;entryDx=0;entryDy=0;" edge="1" parent="1" target="jIKgLwLdZSsmDSTW-W0w-12">
          <mxGeometry width="50" height="50" relative="1" as="geometry">
            <mxPoint x="-920" y="200" as="sourcePoint" />
            <mxPoint x="-590" y="280" as="targetPoint" />
          </mxGeometry>
        </mxCell>
        <mxCell id="jIKgLwLdZSsmDSTW-W0w-27" value="" style="endArrow=classic;html=1;rounded=0;" edge="1" parent="1" target="jIKgLwLdZSsmDSTW-W0w-10">
          <mxGeometry width="50" height="50" relative="1" as="geometry">
            <mxPoint x="-760" y="200" as="sourcePoint" />
            <mxPoint x="-590" y="280" as="targetPoint" />
          </mxGeometry>
        </mxCell>
        <mxCell id="jIKgLwLdZSsmDSTW-W0w-29" style="edgeStyle=orthogonalEdgeStyle;rounded=0;orthogonalLoop=1;jettySize=auto;html=1;exitX=0.5;exitY=0;exitDx=0;exitDy=0;entryX=0.5;entryY=0;entryDx=0;entryDy=0;" edge="1" parent="1" target="jIKgLwLdZSsmDSTW-W0w-13">
          <mxGeometry relative="1" as="geometry">
            <mxPoint x="-599.5882352941176" y="200" as="sourcePoint" />
          </mxGeometry>
        </mxCell>
        <mxCell id="jIKgLwLdZSsmDSTW-W0w-87" style="edgeStyle=orthogonalEdgeStyle;rounded=0;orthogonalLoop=1;jettySize=auto;html=1;exitX=0;exitY=0.5;exitDx=0;exitDy=0;entryX=0;entryY=0.5;entryDx=0;entryDy=0;" edge="1" parent="1" target="jIKgLwLdZSsmDSTW-W0w-37">
          <mxGeometry relative="1" as="geometry">
            <mxPoint x="-40" y="439.6470588235295" as="sourcePoint" />
          </mxGeometry>
        </mxCell>
        <mxCell id="jIKgLwLdZSsmDSTW-W0w-37" value="Менеджер організації виробництва" style="rounded=0;whiteSpace=wrap;html=1;" vertex="1" parent="1">
          <mxGeometry x="-20" y="410" width="120" height="60" as="geometry" />
        </mxCell>
        <mxCell id="jIKgLwLdZSsmDSTW-W0w-38" value="Виробничий цех" style="rounded=0;whiteSpace=wrap;html=1;" vertex="1" parent="1">
          <mxGeometry x="-20" y="570" width="120" height="60" as="geometry" />
        </mxCell>
        <mxCell id="jIKgLwLdZSsmDSTW-W0w-86" style="edgeStyle=orthogonalEdgeStyle;rounded=0;orthogonalLoop=1;jettySize=auto;html=1;exitX=0;exitY=0.5;exitDx=0;exitDy=0;entryX=0;entryY=0.5;entryDx=0;entryDy=0;" edge="1" parent="1" target="jIKgLwLdZSsmDSTW-W0w-39">
          <mxGeometry relative="1" as="geometry">
            <mxPoint x="-40" y="519.6470588235295" as="sourcePoint" />
          </mxGeometry>
        </mxCell>
        <mxCell id="jIKgLwLdZSsmDSTW-W0w-39" value="Відділ головного технолога" style="rounded=0;whiteSpace=wrap;html=1;" vertex="1" parent="1">
          <mxGeometry x="-20" y="490" width="120" height="60" as="geometry" />
        </mxCell>
        <mxCell id="jIKgLwLdZSsmDSTW-W0w-52" style="edgeStyle=orthogonalEdgeStyle;rounded=0;orthogonalLoop=1;jettySize=auto;html=1;exitX=0;exitY=0.5;exitDx=0;exitDy=0;entryX=0;entryY=0.5;entryDx=0;entryDy=0;" edge="1" parent="1" target="jIKgLwLdZSsmDSTW-W0w-40">
          <mxGeometry relative="1" as="geometry">
            <mxPoint x="-1000.0000000000002" y="439.6470588235295" as="sourcePoint" />
          </mxGeometry>
        </mxCell>
        <mxCell id="jIKgLwLdZSsmDSTW-W0w-40" value="Лабораторія контролю якості" style="rounded=0;whiteSpace=wrap;html=1;" vertex="1" parent="1">
          <mxGeometry x="-980" y="410" width="120" height="60" as="geometry" />
        </mxCell>
        <mxCell id="jIKgLwLdZSsmDSTW-W0w-51" style="edgeStyle=orthogonalEdgeStyle;rounded=0;orthogonalLoop=1;jettySize=auto;html=1;exitX=0;exitY=0.5;exitDx=0;exitDy=0;entryX=0;entryY=0.5;entryDx=0;entryDy=0;" edge="1" parent="1" target="jIKgLwLdZSsmDSTW-W0w-41">
          <mxGeometry relative="1" as="geometry">
            <mxPoint x="-1000.0000000000002" y="519.6470588235295" as="sourcePoint" />
          </mxGeometry>
        </mxCell>
        <mxCell id="jIKgLwLdZSsmDSTW-W0w-41" value="Відділ забезпечення якості" style="rounded=0;whiteSpace=wrap;html=1;" vertex="1" parent="1">
          <mxGeometry x="-980" y="490" width="120" height="60" as="geometry" />
        </mxCell>
        <mxCell id="jIKgLwLdZSsmDSTW-W0w-42" value="Склад контролю якості" style="rounded=0;whiteSpace=wrap;html=1;" vertex="1" parent="1">
          <mxGeometry x="-980" y="570" width="120" height="60" as="geometry" />
        </mxCell>
        <mxCell id="jIKgLwLdZSsmDSTW-W0w-48" style="edgeStyle=orthogonalEdgeStyle;rounded=0;orthogonalLoop=1;jettySize=auto;html=1;exitX=0;exitY=0.5;exitDx=0;exitDy=0;entryX=0;entryY=0.5;entryDx=0;entryDy=0;" edge="1" parent="1" target="jIKgLwLdZSsmDSTW-W0w-43">
          <mxGeometry relative="1" as="geometry">
            <mxPoint x="-840" y="439.6470588235295" as="sourcePoint" />
          </mxGeometry>
        </mxCell>
        <mxCell id="jIKgLwLdZSsmDSTW-W0w-43" value="Відділ бухгалтерського і податкового обліку" style="rounded=0;whiteSpace=wrap;html=1;" vertex="1" parent="1">
          <mxGeometry x="-820" y="410" width="120" height="60" as="geometry" />
        </mxCell>
        <mxCell id="jIKgLwLdZSsmDSTW-W0w-46" value="Фінансовий відділ" style="rounded=0;whiteSpace=wrap;html=1;" vertex="1" parent="1">
          <mxGeometry x="-820" y="490" width="120" height="60" as="geometry" />
        </mxCell>
        <mxCell id="jIKgLwLdZSsmDSTW-W0w-70" style="edgeStyle=orthogonalEdgeStyle;rounded=0;orthogonalLoop=1;jettySize=auto;html=1;exitX=0;exitY=0.5;exitDx=0;exitDy=0;entryX=0;entryY=0.5;entryDx=0;entryDy=0;" edge="1" parent="1" target="jIKgLwLdZSsmDSTW-W0w-56">
          <mxGeometry relative="1" as="geometry">
            <mxPoint x="-680" y="439.6470588235295" as="sourcePoint" />
          </mxGeometry>
        </mxCell>
        <mxCell id="jIKgLwLdZSsmDSTW-W0w-56" value="Відділ торгового маркетингу" style="rounded=0;whiteSpace=wrap;html=1;" vertex="1" parent="1">
          <mxGeometry x="-660" y="410" width="120" height="60" as="geometry" />
        </mxCell>
        <mxCell id="jIKgLwLdZSsmDSTW-W0w-69" style="edgeStyle=orthogonalEdgeStyle;rounded=0;orthogonalLoop=1;jettySize=auto;html=1;exitX=0;exitY=0.5;exitDx=0;exitDy=0;entryX=0;entryY=0.5;entryDx=0;entryDy=0;" edge="1" parent="1" target="jIKgLwLdZSsmDSTW-W0w-57">
          <mxGeometry relative="1" as="geometry">
            <mxPoint x="-680" y="519.6470588235295" as="sourcePoint" />
          </mxGeometry>
        </mxCell>
        <mxCell id="jIKgLwLdZSsmDSTW-W0w-57" value="Відділ по роботі з клієнтами" style="rounded=0;whiteSpace=wrap;html=1;" vertex="1" parent="1">
          <mxGeometry x="-660" y="490" width="120" height="60" as="geometry" />
        </mxCell>
        <mxCell id="jIKgLwLdZSsmDSTW-W0w-74" style="edgeStyle=orthogonalEdgeStyle;rounded=0;orthogonalLoop=1;jettySize=auto;html=1;exitX=0;exitY=0.5;exitDx=0;exitDy=0;entryX=0;entryY=0.5;entryDx=0;entryDy=0;" edge="1" parent="1" target="jIKgLwLdZSsmDSTW-W0w-58">
          <mxGeometry relative="1" as="geometry">
            <mxPoint x="-520" y="439.6470588235295" as="sourcePoint" />
          </mxGeometry>
        </mxCell>
        <mxCell id="jIKgLwLdZSsmDSTW-W0w-58" value="Відділ маркетингових досліджень&amp;nbsp;" style="rounded=0;whiteSpace=wrap;html=1;" vertex="1" parent="1">
          <mxGeometry x="-500" y="410" width="120" height="60" as="geometry" />
        </mxCell>
        <mxCell id="jIKgLwLdZSsmDSTW-W0w-73" style="edgeStyle=orthogonalEdgeStyle;rounded=0;orthogonalLoop=1;jettySize=auto;html=1;exitX=0;exitY=0.5;exitDx=0;exitDy=0;entryX=0;entryY=0.5;entryDx=0;entryDy=0;" edge="1" parent="1" target="jIKgLwLdZSsmDSTW-W0w-59">
          <mxGeometry relative="1" as="geometry">
            <mxPoint x="-520" y="519.6470588235295" as="sourcePoint" />
          </mxGeometry>
        </mxCell>
        <mxCell id="jIKgLwLdZSsmDSTW-W0w-59" value="Керівник проектів" style="rounded=0;whiteSpace=wrap;html=1;" vertex="1" parent="1">
          <mxGeometry x="-500" y="490" width="120" height="60" as="geometry" />
        </mxCell>
        <mxCell id="jIKgLwLdZSsmDSTW-W0w-60" value="Аналітичний відділ" style="rounded=0;whiteSpace=wrap;html=1;" vertex="1" parent="1">
          <mxGeometry x="-660" y="570" width="120" height="60" as="geometry" />
        </mxCell>
        <mxCell id="jIKgLwLdZSsmDSTW-W0w-80" style="edgeStyle=orthogonalEdgeStyle;rounded=0;orthogonalLoop=1;jettySize=auto;html=1;exitX=0;exitY=0.5;exitDx=0;exitDy=0;entryX=0;entryY=0.5;entryDx=0;entryDy=0;" edge="1" parent="1" target="jIKgLwLdZSsmDSTW-W0w-61">
          <mxGeometry relative="1" as="geometry">
            <mxPoint x="-360" y="439.6470588235295" as="sourcePoint" />
          </mxGeometry>
        </mxCell>
        <mxCell id="jIKgLwLdZSsmDSTW-W0w-61" value="Відділ матеріально-технічного постачання" style="rounded=0;whiteSpace=wrap;html=1;" vertex="1" parent="1">
          <mxGeometry x="-340" y="410" width="120" height="60" as="geometry" />
        </mxCell>
        <mxCell id="jIKgLwLdZSsmDSTW-W0w-79" style="edgeStyle=orthogonalEdgeStyle;rounded=0;orthogonalLoop=1;jettySize=auto;html=1;exitX=0;exitY=0.5;exitDx=0;exitDy=0;entryX=0;entryY=0.5;entryDx=0;entryDy=0;" edge="1" parent="1" target="jIKgLwLdZSsmDSTW-W0w-62">
          <mxGeometry relative="1" as="geometry">
            <mxPoint x="-360" y="519.6470588235295" as="sourcePoint" />
          </mxGeometry>
        </mxCell>
        <mxCell id="jIKgLwLdZSsmDSTW-W0w-62" value="Склад сировини і матеріалів" style="rounded=0;whiteSpace=wrap;html=1;" vertex="1" parent="1">
          <mxGeometry x="-340" y="490" width="120" height="60" as="geometry" />
        </mxCell>
        <mxCell id="jIKgLwLdZSsmDSTW-W0w-78" style="edgeStyle=orthogonalEdgeStyle;rounded=0;orthogonalLoop=1;jettySize=auto;html=1;exitX=0;exitY=0.5;exitDx=0;exitDy=0;entryX=0;entryY=0.5;entryDx=0;entryDy=0;" edge="1" parent="1" target="jIKgLwLdZSsmDSTW-W0w-63">
          <mxGeometry relative="1" as="geometry">
            <mxPoint x="-360" y="599.6470588235295" as="sourcePoint" />
          </mxGeometry>
        </mxCell>
        <mxCell id="jIKgLwLdZSsmDSTW-W0w-63" value="Склад готової продукції" style="rounded=0;whiteSpace=wrap;html=1;" vertex="1" parent="1">
          <mxGeometry x="-340" y="570" width="120" height="60" as="geometry" />
        </mxCell>
        <mxCell id="jIKgLwLdZSsmDSTW-W0w-64" value="Менеджери з маркетингу" style="rounded=0;whiteSpace=wrap;html=1;" vertex="1" parent="1">
          <mxGeometry x="-500" y="570" width="120" height="60" as="geometry" />
        </mxCell>
        <mxCell id="jIKgLwLdZSsmDSTW-W0w-77" style="edgeStyle=orthogonalEdgeStyle;rounded=0;orthogonalLoop=1;jettySize=auto;html=1;exitX=0;exitY=0.5;exitDx=0;exitDy=0;entryX=0;entryY=0.5;entryDx=0;entryDy=0;" edge="1" parent="1" target="jIKgLwLdZSsmDSTW-W0w-65">
          <mxGeometry relative="1" as="geometry">
            <mxPoint x="-360" y="679.6470588235295" as="sourcePoint" />
          </mxGeometry>
        </mxCell>
        <mxCell id="jIKgLwLdZSsmDSTW-W0w-65" value="Відділ логістики" style="rounded=0;whiteSpace=wrap;html=1;" vertex="1" parent="1">
          <mxGeometry x="-340" y="650" width="120" height="60" as="geometry" />
        </mxCell>
        <mxCell id="jIKgLwLdZSsmDSTW-W0w-66" value="Ділянка автотранспорту" style="rounded=0;whiteSpace=wrap;html=1;" vertex="1" parent="1">
          <mxGeometry x="-340" y="730" width="120" height="60" as="geometry" />
        </mxCell>
        <mxCell id="jIKgLwLdZSsmDSTW-W0w-108" style="edgeStyle=orthogonalEdgeStyle;rounded=0;orthogonalLoop=1;jettySize=auto;html=1;exitX=0;exitY=0.5;exitDx=0;exitDy=0;entryX=0;entryY=0.5;entryDx=0;entryDy=0;" edge="1" parent="1" target="jIKgLwLdZSsmDSTW-W0w-88">
          <mxGeometry relative="1" as="geometry">
            <mxPoint x="420" y="439.6470588235295" as="sourcePoint" />
          </mxGeometry>
        </mxCell>
        <mxCell id="jIKgLwLdZSsmDSTW-W0w-88" value="Адміністративний відділ" style="rounded=0;whiteSpace=wrap;html=1;" vertex="1" parent="1">
          <mxGeometry x="440" y="410" width="120" height="60" as="geometry" />
        </mxCell>
        <mxCell id="jIKgLwLdZSsmDSTW-W0w-106" style="edgeStyle=orthogonalEdgeStyle;rounded=0;orthogonalLoop=1;jettySize=auto;html=1;exitX=0;exitY=0.5;exitDx=0;exitDy=0;entryX=0;entryY=0.5;entryDx=0;entryDy=0;" edge="1" parent="1" target="jIKgLwLdZSsmDSTW-W0w-89">
          <mxGeometry relative="1" as="geometry">
            <mxPoint x="270" y="200" as="sourcePoint" />
            <Array as="points">
              <mxPoint x="420" y="200" />
              <mxPoint x="420" y="600" />
            </Array>
          </mxGeometry>
        </mxCell>
        <mxCell id="jIKgLwLdZSsmDSTW-W0w-89" value="Господарський відділ" style="rounded=0;whiteSpace=wrap;html=1;" vertex="1" parent="1">
          <mxGeometry x="440" y="570" width="120" height="60" as="geometry" />
        </mxCell>
        <mxCell id="jIKgLwLdZSsmDSTW-W0w-109" style="edgeStyle=orthogonalEdgeStyle;rounded=0;orthogonalLoop=1;jettySize=auto;html=1;exitX=0;exitY=0.5;exitDx=0;exitDy=0;entryX=0;entryY=0.5;entryDx=0;entryDy=0;" edge="1" parent="1" target="jIKgLwLdZSsmDSTW-W0w-90">
          <mxGeometry relative="1" as="geometry">
            <mxPoint x="420" y="359.6470588235295" as="sourcePoint" />
          </mxGeometry>
        </mxCell>
        <mxCell id="jIKgLwLdZSsmDSTW-W0w-90" value="Юридичний відділ" style="rounded=0;whiteSpace=wrap;html=1;" vertex="1" parent="1">
          <mxGeometry x="440" y="330" width="120" height="60" as="geometry" />
        </mxCell>
        <mxCell id="jIKgLwLdZSsmDSTW-W0w-103" style="edgeStyle=orthogonalEdgeStyle;rounded=0;orthogonalLoop=1;jettySize=auto;html=1;exitX=0;exitY=0.5;exitDx=0;exitDy=0;entryX=0;entryY=0.5;entryDx=0;entryDy=0;" edge="1" parent="1" target="jIKgLwLdZSsmDSTW-W0w-91">
          <mxGeometry relative="1" as="geometry">
            <mxPoint x="120" y="359.6470588235295" as="sourcePoint" />
          </mxGeometry>
        </mxCell>
        <mxCell id="jIKgLwLdZSsmDSTW-W0w-91" value="Служба управління персоналом" style="rounded=0;whiteSpace=wrap;html=1;" vertex="1" parent="1">
          <mxGeometry x="140" y="330" width="120" height="60" as="geometry" />
        </mxCell>
        <mxCell id="jIKgLwLdZSsmDSTW-W0w-102" style="edgeStyle=orthogonalEdgeStyle;rounded=0;orthogonalLoop=1;jettySize=auto;html=1;exitX=0;exitY=0.5;exitDx=0;exitDy=0;entryX=0;entryY=0.5;entryDx=0;entryDy=0;" edge="1" parent="1" target="jIKgLwLdZSsmDSTW-W0w-92">
          <mxGeometry relative="1" as="geometry">
            <mxPoint x="120" y="439.6470588235295" as="sourcePoint" />
          </mxGeometry>
        </mxCell>
        <mxCell id="jIKgLwLdZSsmDSTW-W0w-92" value="Служба охорони праці" style="rounded=0;whiteSpace=wrap;html=1;" vertex="1" parent="1">
          <mxGeometry x="140" y="410" width="120" height="60" as="geometry" />
        </mxCell>
        <mxCell id="jIKgLwLdZSsmDSTW-W0w-101" style="edgeStyle=orthogonalEdgeStyle;rounded=0;orthogonalLoop=1;jettySize=auto;html=1;exitX=0;exitY=0.5;exitDx=0;exitDy=0;entryX=0;entryY=0.5;entryDx=0;entryDy=0;" edge="1" parent="1" target="jIKgLwLdZSsmDSTW-W0w-93">
          <mxGeometry relative="1" as="geometry">
            <mxPoint x="120" y="519.6470588235295" as="sourcePoint" />
          </mxGeometry>
        </mxCell>
        <mxCell id="jIKgLwLdZSsmDSTW-W0w-93" value="Служба безпеки" style="rounded=0;whiteSpace=wrap;html=1;" vertex="1" parent="1">
          <mxGeometry x="140" y="490" width="120" height="60" as="geometry" />
        </mxCell>
        <mxCell id="jIKgLwLdZSsmDSTW-W0w-94" value="Служба охорони та контролю стану довкілля" style="rounded=0;whiteSpace=wrap;html=1;" vertex="1" parent="1">
          <mxGeometry x="140" y="570" width="120" height="60" as="geometry" />
        </mxCell>
        <mxCell id="jIKgLwLdZSsmDSTW-W0w-104" style="edgeStyle=orthogonalEdgeStyle;rounded=0;orthogonalLoop=1;jettySize=auto;html=1;exitX=0;exitY=0.5;exitDx=0;exitDy=0;entryX=0;entryY=0.5;entryDx=0;entryDy=0;" edge="1" parent="1" target="jIKgLwLdZSsmDSTW-W0w-95">
          <mxGeometry relative="1" as="geometry">
            <mxPoint x="120" y="200" as="sourcePoint" />
            <Array as="points">
              <mxPoint x="270" y="200" />
              <mxPoint x="270" y="360" />
            </Array>
          </mxGeometry>
        </mxCell>
        <mxCell id="jIKgLwLdZSsmDSTW-W0w-95" value="Відділ фармрозробок" style="rounded=0;whiteSpace=wrap;html=1;" vertex="1" parent="1">
          <mxGeometry x="290" y="330" width="120" height="60" as="geometry" />
        </mxCell>
        <mxCell id="jIKgLwLdZSsmDSTW-W0w-107" style="edgeStyle=orthogonalEdgeStyle;rounded=0;orthogonalLoop=1;jettySize=auto;html=1;exitX=0;exitY=0.5;exitDx=0;exitDy=0;entryX=0;entryY=0.5;entryDx=0;entryDy=0;" edge="1" parent="1" target="jIKgLwLdZSsmDSTW-W0w-96">
          <mxGeometry relative="1" as="geometry">
            <mxPoint x="420" y="519.6470588235295" as="sourcePoint" />
          </mxGeometry>
        </mxCell>
        <mxCell id="jIKgLwLdZSsmDSTW-W0w-96" value="Відділ реєстрації та перереєстрації" style="rounded=0;whiteSpace=wrap;html=1;" vertex="1" parent="1">
          <mxGeometry x="440" y="490" width="120" height="60" as="geometry" />
        </mxCell>
        <mxCell id="jIKgLwLdZSsmDSTW-W0w-105" style="edgeStyle=orthogonalEdgeStyle;rounded=0;orthogonalLoop=1;jettySize=auto;html=1;exitX=0;exitY=0.5;exitDx=0;exitDy=0;entryX=0;entryY=0.5;entryDx=0;entryDy=0;" edge="1" parent="1" target="jIKgLwLdZSsmDSTW-W0w-98">
          <mxGeometry relative="1" as="geometry">
            <mxPoint x="270" y="360" as="sourcePoint" />
            <Array as="points">
              <mxPoint x="270" y="440" />
            </Array>
          </mxGeometry>
        </mxCell>
        <mxCell id="jIKgLwLdZSsmDSTW-W0w-98" value="Відділ фармаконагляду" style="rounded=0;whiteSpace=wrap;html=1;" vertex="1" parent="1">
          <mxGeometry x="290" y="410" width="120" height="60" as="geometry" />
        </mxCell>
      </root>
    </mxGraphModel>
  </diagram>
</mxfile>
